<?xml version="1.0" encoding="utf-8"?>
<!-- Generator: Adobe Illustrator 21.0.0, SVG Export Plug-In . SVG Version: 6.00 Build 0)  -->
<svg version="1.1" id="Layer_1" xmlns="http://www.w3.org/2000/svg" xmlns:xlink="http://www.w3.org/1999/xlink" x="0px" y="0px"
	 viewBox="0 0 30 19.4" style="enable-background:new 0 0 30 19.4;" xml:space="preserve">
<g>
	<path d="M26.8,0H3.2C1.4,0,0,1.4,0,3.2v13c0,1.8,1.4,3.2,3.2,3.2h23.6c1.8,0,3.2-1.4,3.2-3.2v-13C30,1.4,28.6,0,26.8,0z M3.2,1.8
		h23.6c0.1,0,0.3,0,0.4,0l-12.4,8.5l-12-8.5C3,1.8,3.1,1.8,3.2,1.8z M28.2,16.2c0,0.8-0.6,1.4-1.4,1.4H3.2c-0.8,0-1.4-0.6-1.4-1.4
		V3.4l13,9.3l13.4-9.2V16.2z"/>
</g>
</svg>
